<?xml version="1.0" standalone="no"?><!DOCTYPE svg PUBLIC "-//W3C//DTD SVG 1.1//EN" "http://www.w3.org/Graphics/SVG/1.1/DTD/svg11.dtd"><svg t="1505648252899" class="icon" style="" viewBox="0 0 2156 1024" version="1.1" xmlns="http://www.w3.org/2000/svg" p-id="1434" xmlns:xlink="http://www.w3.org/1999/xlink" width="60" height="50"><defs><style type="text/css"></style></defs><path d="M1864.757895 287.438596c10.778947 0 16.168421 5.389474 16.168421 14.37193l-7.185965 59.284211H1518.035088v-62.877193l116.77193-3.592983v1.796492l114.975438-3.592983v-1.796491l114.975439-3.592983z m114.975438 7.185965c-1.796491-30.540351-19.761404-46.708772-52.098245-46.708772l-177.852632 7.185965v-53.894736H1688.701754c-37.726316 0-53.894737 7.185965-53.894736 19.761403v37.726316l-116.77193 5.389474v-21.557895c-71.859649-5.389474-105.992982 1.796491-105.992983 19.761403v138.329825H1634.807018v97.010526h-152.701755v35.929825H1634.807018v183.242105l114.975438-10.778947v-172.463158h165.277193v-37.726316l-165.277193 1.796491v-97.010526h192.224562v-17.964912h3.592982c10.778947-1.796491 17.964912-8.982456 25.150877-25.150878l8.982456-62.877193zM1365.333333 328.757895h-61.080701v-127.550877h-61.080702c-35.929825-1.796491-53.894737 5.389474-52.098246 17.964912v109.585965h-215.578947v37.726316h213.782456v366.48421h113.178947V366.484211H1365.333333v-37.726316z" fill="#003E8D" p-id="1435"></path><path d="M955.733333 201.207018c-35.929825-1.796491-52.098246 5.389474-52.098245 17.964912 0 53.894737-52.098246 116.77193-154.498246 186.835088l16.168421 23.354386 77.249123-35.929825 1.796491 312.589474 113.178948 14.371929V319.775439c32.336842-37.726316 48.505263-77.249123 50.301754-118.568421h-52.098246z" fill="#003E8D" p-id="1436"></path><path d="M1814.45614 623.382456l30.540351 34.133333 32.336842 28.74386c7.185965 7.185965 14.37193 7.185965 19.761404 0l34.133333-28.74386 28.74386-34.133333c5.389474-5.389474 5.389474-12.575439 0-17.964912l-30.540351-34.133333-32.336842-28.74386c-5.389474-7.185965-12.575439-7.185965-19.761404 0l-32.336842 28.74386-30.540351 34.133333c-7.185965 7.185965-7.185965 12.575439 0 17.964912M1174.905263 485.052632l-37.726316-44.912281-44.91228-39.522807c-7.185965-7.185965-17.964912-7.185965-25.150878 0l-44.91228 39.522807-39.522807 44.912281c-8.982456 8.982456-8.982456 16.168421 0 25.150877l84.435087 82.638596c7.185965 7.185965 17.964912 7.185965 25.150878 0l44.91228-39.522807 37.726316-43.115789c8.982456-8.982456 8.982456-16.168421 0-25.150877" fill="#F29329" p-id="1437"></path><path d="M1947.396491 834.937263l44.912281-7.185965 28.74386-28.743859c16.168421-23.354386 41.319298-50.301754 80.842105-82.638597 41.319298-35.929825 57.487719-44.912281 43.115789-30.540351 7.185965-7.185965 12.575439-14.37193 10.778948-21.557895 0-5.389474-5.389474-8.982456-12.575439-7.185964l-26.947368 3.592982c-183.242105 37.726316-411.396491 62.877193-688.056141 75.452632-312.589474 12.575439-544.336842-1.796491-698.835087-44.912281-48.505263-14.37193-93.417544-26.947368-136.533334-39.522807-34.133333-12.575439-66.470175-21.557895-97.010526-32.336842-16.168421-5.389474-32.336842-10.778947-46.708772-16.168421-102.4-44.912281-185.038596-66.470175-244.322807-64.673684-55.691228 0-102.4 12.575439-140.126316 37.726315-39.522807 26.947368-59.284211 62.877193-57.487719 107.789474-1.796491 50.301754 19.761404 89.824561 61.080702 116.77193 28.74386 19.761404 64.673684 32.336842 105.992982 37.726316h7.185965c-32.336842-3.592982-61.080702-14.37193-86.231579-30.540351-34.133333-23.354386-52.098246-53.894737-52.098246-93.417544 0-77.249123 43.115789-116.77193 134.736843-123.957895h12.575438l88.02807 7.185965c28.74386 8.982456 55.691228 17.964912 77.249123 28.74386 10.778947 3.592982 41.319298 19.761404 91.621053 44.91228 21.557895 10.778947 44.912281 23.354386 71.859649 35.929825 1.796491 1.796491 7.185965 3.592982 10.778947 5.389474 71.859649 35.929825 140.126316 62.877193 208.392983 84.435087 249.712281 75.452632 652.126316 88.02807 1209.038596 37.726316" fill="#F29329" p-id="1438"></path><path d="M404.210526 222.764912v68.266667H177.852632v35.929825h224.561403V413.192982l-159.887719 1.796492v37.726315l339.536842-1.796491c-16.168421 59.284211-43.115789 114.975439-86.231579 167.073684 30.540351 10.778947 61.080702 21.557895 95.214035 32.336843 61.080702-73.65614 98.807018-150.905263 107.789474-237.136843H515.592982v-84.435087h233.54386v-35.929825h-233.54386v-86.231579l-59.28421-1.796491c-35.929825-1.796491-52.098246 5.389474-52.098246 17.964912M208.392982 837.164912h17.964913c107.789474-7.185965 203.003509-43.115789 283.845614-107.789473 7.185965-7.185965 16.168421-14.37193 23.354386-21.557895-3.592982-1.796491-7.185965-1.796491-10.778948-5.389474-26.947368-12.575439-52.098246-25.150877-71.859649-35.929824l-7.185965 7.185965c-35.929825 34.133333-77.249123 61.080702-120.364912 82.638596-41.319298 19.761404-77.249123 28.74386-105.992982 30.540351-95.214035 0-143.719298-35.929825-143.719299-105.992983 0-48.505263 35.929825-79.045614 107.789474-95.214035-91.621053 7.185965-134.736842 46.708772-134.736842 123.957895 0 39.522807 17.964912 70.063158 52.098246 93.417544 23.354386 16.168421 52.098246 26.947368 86.231578 30.540351h-12.575438c12.575439 3.592982 23.354386 3.592982 35.929824 3.592982" fill="#003E8D" p-id="1439"></path><path d="M2109.080702 161.684211h-8.982456l-14.37193 35.929824-14.37193-35.929824h-8.982456v43.115789h5.389474v-35.929825l14.371929 35.929825h5.389474l14.37193-35.929825v35.929825h7.185965zM2055.185965 167.073684V161.684211h-39.522807v5.389473h16.168421v37.726316h8.982456V167.073684z" fill="#231815" p-id="1440"></path></svg>