<?xml version="1.0" standalone="no"?><!DOCTYPE svg PUBLIC "-//W3C//DTD SVG 1.1//EN" "http://www.w3.org/Graphics/SVG/1.1/DTD/svg11.dtd"><svg t="1505812193168" class="icon" style="" viewBox="0 0 1024 1024" version="1.1" xmlns="http://www.w3.org/2000/svg" p-id="1845" xmlns:xlink="http://www.w3.org/1999/xlink" width="150" height="150"><defs><style type="text/css"></style></defs><path d="M343.934628 443.922628a43.579107 43.579107 0 0 1-43.36829-43.368289v-77.40035a43.368289 43.368289 0 0 1 43.36829-43.368289h6.62571a43.368289 43.368289 0 0 1 43.36829 43.368289v77.40035a43.579107 43.579107 0 0 1-43.36829 43.368289h-6.62571z m329.478531 0a43.579107 43.579107 0 0 1-43.36829-43.368289v-77.40035a43.368289 43.368289 0 0 1 43.36829-43.368289h6.625711a43.127354 43.127354 0 0 1 43.06712 43.368289v77.40035a43.308056 43.308056 0 0 1-43.06712 43.368289h-6.625711z m99.385663 265.028434a27.105181 27.105181 0 0 1-3.011687 37.947254 26.563077 26.563077 0 0 1-37.947253-3.011687 288.880994 288.880994 0 0 0-439.706267 0 26.563077 26.563077 0 0 1-37.947253 3.011687 27.105181 27.105181 0 0 1-3.011687-37.947254 342.549252 342.549252 0 0 1 521.624147 0z m-187.929254 309.902568a513.372124 513.372124 0 0 1-338.212423-68.967627 36.622111 36.622111 0 1 1 37.947253-62.643085 438.049839 438.049839 0 1 0-142.151614-138.53759 36.501643 36.501643 0 0 1-61.43841 39.453096A511.745814 511.745814 0 0 1 102.39735 205.397037a455.848907 455.848907 0 0 1 48.488156-56.017374 511.986749 511.986749 0 0 1 867.968124 290.025435 512.619203 512.619203 0 0 1-433.984062 579.448532z" p-id="1846" fill="#E64340"></path></svg>