<?xml version="1.0" standalone="no"?><!DOCTYPE svg PUBLIC "-//W3C//DTD SVG 1.1//EN" "http://www.w3.org/Graphics/SVG/1.1/DTD/svg11.dtd"><svg t="1505812959069" class="icon" style="" viewBox="0 0 1024 1024" version="1.1" xmlns="http://www.w3.org/2000/svg" p-id="1846" xmlns:xlink="http://www.w3.org/1999/xlink" width="150" height="150"><defs><style type="text/css"></style></defs><path d="M906.24 655.36c-5.12-5.12-15.36-10.24-25.6-10.24-15.36 0-25.6 5.12-35.84 15.36-81.92 102.4-204.8 158.72-332.8 158.72s-250.88-56.32-332.8-158.72c-10.24-10.24-20.48-15.36-30.72-15.36-10.24 0-20.48 5.12-25.6 10.24-15.36 5.12-20.48 20.48-20.48 30.72 0 10.24 5.12 20.48 10.24 30.72 102.4 122.88 245.76 189.44 399.36 189.44s296.96-71.68 399.36-189.44c15.36-15.36 15.36-46.08-5.12-61.44zM762.88 409.6c40.96 0 71.68-35.84 71.68-76.8V220.16c0-40.96-35.84-76.8-71.68-76.8-40.96 0-71.68 35.84-71.68 76.8v112.64c0 40.96 30.72 76.8 71.68 76.8zM261.12 409.6c40.96 0 71.68-35.84 71.68-76.8V220.16c0-40.96-35.84-76.8-71.68-76.8-40.96 0-71.68 35.84-71.68 76.8v112.64c0 40.96 30.72 76.8 71.68 76.8z" p-id="1847" fill="#2693d4"></path></svg>