<?xml version="1.0" standalone="no"?><!DOCTYPE svg PUBLIC "-//W3C//DTD SVG 1.1//EN" "http://www.w3.org/Graphics/SVG/1.1/DTD/svg11.dtd"><svg t="1505648317661" class="icon" style="" viewBox="0 0 1024 1024" version="1.1" xmlns="http://www.w3.org/2000/svg" p-id="3274" xmlns:xlink="http://www.w3.org/1999/xlink" width="50" height="50"><defs><style type="text/css"></style></defs><path d="M639.488 396.1856c8.2944 0 16.5888 0.6144 24.7808 1.536C642.048 294.0928 531.2512 217.088 404.6848 217.088 263.2704 217.088 147.456 313.4464 147.456 435.9168c0 70.656 38.5024 128.6144 102.912 173.6704l-25.7024 77.4144 89.9072-45.056c32.1536 6.3488 57.9584 12.9024 90.112 12.9024 8.0896 0 16.0768-0.4096 24.064-1.024-5.0176-17.2032-7.9872-35.2256-7.9872-53.8624 0-112.5376 96.5632-203.776 218.7264-203.776z m-138.3424-69.7344c19.3536 0 32.1536 12.6976 32.1536 32.0512 0 19.2512-12.8 32.1536-32.1536 32.1536-19.2512 0-38.6048-12.9024-38.6048-32.1536 0-19.2512 19.3536-32.0512 38.6048-32.0512z m-180.0192 64.3072c-19.2512 0-38.7072-12.9024-38.7072-32.1536 0-19.3536 19.456-32.0512 38.7072-32.0512 19.2512 0 32.1536 12.6976 32.1536 32.0512 0 19.2512-12.9024 32.1536-32.1536 32.1536z" fill="#42AD3B" p-id="3275"></path><path d="M874.2912 596.6848c0-102.8096-102.912-186.6752-218.5216-186.6752-122.368 0-218.8288 83.8656-218.8288 186.6752 0 103.0144 96.3584 186.6752 218.8288 186.6752 25.6 0 51.5072-6.4512 77.2096-12.9024l70.5536 38.6048-19.3536-64.3072c51.6096-38.6048 90.112-90.0096 90.112-148.0704z m-289.4848-32.1536c-12.8 0-25.7024-12.6976-25.7024-25.7024 0-12.8 12.9024-25.7024 25.7024-25.7024 19.456 0 32.1536 12.9024 32.1536 25.7024 0.1024 13.0048-12.6976 25.7024-32.1536 25.7024z m141.5168 0c-12.6976 0-25.6-12.6976-25.6-25.7024 0-12.8 12.8-25.7024 25.6-25.7024 19.2512 0 32.1536 12.9024 32.1536 25.7024 0.1024 13.0048-12.9024 25.7024-32.1536 25.7024z" fill="#42AD3B" p-id="3276"></path></svg>